<?xml version="1.0" encoding="utf-8"?>
<!-- Generator: Adobe Illustrator 26.5.2, SVG Export Plug-In . SVG Version: 6.00 Build 0)  -->
<svg version="1.1" id="Layer_1" xmlns="http://www.w3.org/2000/svg" xmlns:xlink="http://www.w3.org/1999/xlink" x="0px" y="0px"
	 width="281.24px" height="51.37px" viewBox="0 0 281.24 51.37" style="enable-background:new 0 0 281.24 51.37;"
	 xml:space="preserve">
<style type="text/css">
	.st0{fill:#23D160;}
	.st1{opacity:0.3;}
</style>
<g>
	<path class="st0" d="M0.08,16.36c0.39-3.04,1.83-5.75,4.31-8.12c2.48-2.37,5.5-4.14,9.05-5.33C9.95,6.75,8.2,11.71,8.2,17.8H1.44
		c-0.4,0-0.73-0.14-1.01-0.42C0.14,17.1,0.03,16.76,0.08,16.36z M14.33,6.22c2.28-3.1,4.75-4.65,7.4-4.65c2.65,0,5.12,1.55,7.4,4.65
		c2.28,3.1,3.43,6.96,3.43,11.59H10.91C10.91,13.18,12.05,9.32,14.33,6.22z M43.39,16.36c0.06,0.4-0.06,0.73-0.34,1.02
		c-0.28,0.28-0.62,0.42-1.02,0.42h-6.77c0-6.09-1.75-11.05-5.24-14.88c3.55,1.18,6.57,2.96,9.05,5.33
		C41.55,10.61,42.99,13.32,43.39,16.36z"/>
</g>
<g class="st1">
	<path class="st0" d="M41.24,17.84L29.65,30.69c0.11,0.34,0.17,0.56,0.17,0.68v10.83c0,0.73-0.27,1.37-0.8,1.9
		c-0.54,0.54-1.17,0.8-1.9,0.8H16.29c-0.73,0-1.37-0.27-1.9-0.8c-0.54-0.54-0.8-1.17-0.8-1.9V31.37c0-0.11,0.06-0.34,0.17-0.68
		L2.16,17.84H5.8l9.81,10.99c0.39-0.11,0.62-0.17,0.68-0.17h4.06V17.84h2.71v10.83h4.06c0.06,0,0.28,0.06,0.68,0.17l9.81-10.99
		H41.24z"/>
</g>
<path class="st0" d="M23.14,32.31c0.04-0.28,0.47-0.3,0.83-0.19c0.02,0,0.58,0.21,0.43,0.34C23.75,32.31,23.11,32.87,23.14,32.31z
	 M18.66,32.48c0.68-0.19,1.39,0.45,1.36-0.15c-0.02-0.32-0.53-0.34-0.9-0.21C19.11,32.12,18.49,32.33,18.66,32.48L18.66,32.48z
	 M23.29,34.83c-0.19,0-0.36,0.15-0.36,0.36c0,0.19,0.15,0.36,0.36,0.36c0.19,0,0.36-0.15,0.36-0.36l0,0
	C23.63,35,23.48,34.83,23.29,34.83z M19.72,34.83c-0.19,0-0.36,0.15-0.36,0.36s0.15,0.36,0.36,0.36c0.21,0,0.36-0.15,0.36-0.36l0,0
	C20.06,35,19.92,34.83,19.72,34.83L19.72,34.83z M26.83,38.48c-0.21,0.53-0.92,0.26-1.43-0.02c-0.3,1.54-1.3,2.47-2.82,2.77
	c0,0.02-0.04,0,0.53,0.02c0.73,0.02,1.45-0.04,2.18-0.17c-0.28-0.19-0.36-0.55-0.21-0.85c0.19,0,0.36,0.11,0.49,0.26
	c0.17-0.19,0.41-0.32,0.68-0.3c0.11,0.26,0.04,0.58-0.15,0.77c0.11-0.02,0.19-0.04,0.21-0.04c0.02,0,0.41,0.26,0.06,0.3
	s-0.51,0.11-1.04,0.23c-0.85,0.19-1.75,0.28-2.62,0.28l0.02,0.26c0.04,0.17-0.06,0.34-0.23,0.38s-0.34-0.06-0.38-0.23
	c0,0.17-0.15,0.32-0.32,0.32s-0.32-0.15-0.32-0.32v0.11c0,0.17-0.15,0.32-0.32,0.32s-0.32-0.15-0.32-0.32
	c-0.09,0.15-0.28,0.19-0.43,0.11c-0.11-0.06-0.17-0.17-0.15-0.3l0.02-0.28c-0.81,0.02-1.32,0.06-1.39,0.06
	c-0.19-0.02-0.34-0.19-0.32-0.38c0.02-0.17,0.15-0.32,0.32-0.32c0.06,0,0.62,0.02,1.41,0.06c-1.36-0.34-2.32-1.24-2.56-2.64
	c-0.55,0.28-1.28,0.6-1.51,0.02c-0.23-0.58,0.47-0.96,1.49-1.64c0.02-0.15,0.04-0.3,0.06-0.45c-0.32-0.43-0.26-0.81-0.36-1.34
	c-0.38,0.04-0.51-0.21-0.53-0.51c0-0.11,0.02-0.23,0.04-0.34c0.02-0.04,0.21-0.04,0.28-0.06c0.13-0.7,1.13-0.75,2.03-0.77
	c0.47-0.55,1.11-0.94,1.81-1.09c-0.21-0.26-0.23-0.62-0.04-0.9c0.28,0.04,0.51,0.23,0.6,0.51c0.11-0.15,0.26-0.23,0.43-0.23
	c0.11,0.19,0.06,0.43-0.09,0.58c0.83,0.09,1.6,0.49,2.13,1.13c0.81,0.04,1.6,0.13,1.73,0.77c0.06,0.02,0.26,0.02,0.28,0.06
	c0.02,0.11,0.04,0.23,0.04,0.34c0,0.32-0.15,0.58-0.53,0.51c-0.06,0.38-0.06,0.73-0.19,1.07c0.06,0.28,0.09,0.53,0.11,0.81
	C26.29,37.56,27.04,37.94,26.83,38.48L26.83,38.48z M20.79,34.83c0.02-0.98-0.85-0.94-1.75-0.9c-0.49,0.02-0.87,0.04-1.02,0.32
	c-0.26,0.47,0.13,2.07,0.51,2.26c0.21,0.11,1.64,0.17,1.92-0.17C20.62,36.13,20.79,35.23,20.79,34.83L20.79,34.83z M21.94,36.13
	c-0.11-0.28-0.13-0.66-0.34-0.73c-0.09,0-0.17,0-0.23,0c-0.21,0.06-0.23,0.49-0.38,0.83c0.34,0,0.43,0.21,0.53,0.21
	C21.62,36.45,21.64,36.19,21.94,36.13z M24.97,34.25c-0.15-0.28-0.55-0.3-1.04-0.32c-0.9-0.04-1.75-0.09-1.73,0.9
	c-0.02,0.41,0.11,1.3,0.3,1.51c0.3,0.34,1.71,0.26,1.92,0.17C24.78,36.34,25.25,34.74,24.97,34.25z"/>
<g>
	<path d="M80.91,10.38v29.7h-6.87V27.9H60.55v12.18h-6.87v-29.7h6.87v11.71h13.49V10.38H80.91z"/>
	<path d="M104.72,32.91l3.52,3.82c-2.12,2.42-5.3,3.69-9.42,3.69c-7.89,0-13.03-4.96-13.03-11.75c0-6.83,5.18-11.75,12.22-11.75
		c6.45,0,11.75,4.24,11.8,11.54l-16.89,3.27c0.98,2.25,3.1,3.4,6.07,3.4C101.41,35.12,103.15,34.4,104.72,32.91z M92.29,27.99
		l11.12-2.16c-0.64-2.33-2.63-3.9-5.39-3.9C94.7,21.92,92.41,24.13,92.29,27.99z"/>
	<path d="M114.27,32.53V8.6h6.62v23.55c0,1.95,1.02,3.01,2.84,3.01c0.72,0,1.49-0.21,1.87-0.42l0.3,5.13
		c-1.15,0.38-2.29,0.55-3.44,0.55C117.32,40.42,114.27,37.62,114.27,32.53z"/>
	<path d="M129.16,32.53V8.6h6.62v23.55c0,1.95,1.02,3.01,2.84,3.01c0.72,0,1.49-0.21,1.87-0.42l0.3,5.13
		c-1.15,0.38-2.29,0.55-3.44,0.55C132.22,40.42,129.16,37.62,129.16,32.53z"/>
	<path d="M141.93,28.67c0-6.87,5.3-11.75,12.56-11.75c7.26,0,12.52,4.88,12.52,11.75s-5.26,11.75-12.52,11.75
		C147.24,40.42,141.93,35.54,141.93,28.67z M160.31,28.67c0-3.95-2.5-6.32-5.81-6.32c-3.31,0-5.86,2.38-5.86,6.32
		s2.55,6.32,5.86,6.32C157.8,34.99,160.31,32.61,160.31,28.67z"/>
	<path d="M197.65,21.16c0,6.62-4.96,10.74-12.9,10.74h-5.98v8.19h-6.87v-29.7h12.86C192.68,10.38,197.65,14.49,197.65,21.16z
		 M190.69,21.16c0-3.27-2.12-5.18-6.32-5.18h-5.6v10.31h5.6C188.57,26.29,190.69,24.38,190.69,21.16z"/>
	<path d="M225.19,17.25v22.83h-6.32v-2.63c-1.66,1.99-4.07,2.97-7.13,2.97c-6.45,0-11.42-4.58-11.42-11.75s4.97-11.75,11.42-11.75
		c2.8,0,5.18,0.89,6.83,2.76v-2.42H225.19z M218.7,28.67c0-3.95-2.55-6.32-5.81-6.32c-3.31,0-5.86,2.38-5.86,6.32
		s2.55,6.32,5.86,6.32C216.15,34.99,218.7,32.61,218.7,28.67z"/>
	<path d="M229.6,28.67c0-6.87,5.3-11.75,12.73-11.75c4.8,0,8.57,2.08,10.23,5.81l-5.13,2.76c-1.23-2.16-3.06-3.14-5.13-3.14
		c-3.35,0-5.98,2.33-5.98,6.32s2.63,6.32,5.98,6.32c2.08,0,3.9-0.93,5.13-3.14l5.13,2.8c-1.66,3.65-5.43,5.77-10.23,5.77
		C234.9,40.42,229.6,35.54,229.6,28.67z"/>
	<path d="M266.01,31.13l-3.18,3.14v5.81h-6.62V8.6h6.62v17.82l9.68-9.17h7.89l-9.51,9.68l10.35,13.15h-8.02L266.01,31.13z"/>
</g>
<g>
</g>
<g>
</g>
<g>
</g>
<g>
</g>
<g>
</g>
<g>
</g>
<g>
</g>
<g>
</g>
<g>
</g>
<g>
</g>
<g>
</g>
</svg>
